<svg id="レイヤー_1" xmlns="http://www.w3.org/2000/svg" viewBox="0 0 480.216217 179.1081085"><style>.st0{fill:#200000}.st1{fill:#e60012}</style><path class="st0" d="M45.217 171.88l.094-11.896h-.07l-4.37 11.896h-2.848l-4.25-11.896H33.7l.095 11.896h-3.823v-16.81h5.77l3.823 10.78h.094l3.658-10.78h5.864v16.81zM66.012 171.88v-1.639h-.047c-.547 1.045-1.9 1.971-3.562 1.971-3.182 0-4.297-2.469-4.297-4.843v-7.313h3.917v6.411c0 1.33.333 2.517 1.757 2.517 1.354 0 2.09-1.188 2.09-2.542v-6.386h3.893v11.824h-3.75zM85.575 163.546c-.617-.594-1.52-1.068-2.469-1.068-.736 0-1.472.261-1.472.95 0 .665.641.854 2.16 1.186 1.805.405 3.776 1.307 3.776 3.61 0 2.991-2.636 4.036-5.058 4.036-1.923 0-3.917-.64-5.152-1.828l2.184-2.303c.69.76 1.758 1.33 2.897 1.33.641 0 1.401-.262 1.401-1.02 0-.738-.736-.975-2.35-1.355-1.639-.38-3.443-1.21-3.443-3.442 0-2.826 2.66-3.966 4.914-3.966 1.758 0 3.586.57 4.75 1.662l-2.138 2.208zM97.585 158.418c-1.258 0-2.23-.973-2.23-2.136 0-1.14.972-2.137 2.23-2.137 1.235 0 2.232.95 2.232 2.137 0 1.21-.997 2.136-2.232 2.136m-1.947 1.638h3.894v11.824h-3.894v-11.824zM116.336 163.88c-.427-.57-1.282-.95-2.065-.95-1.639 0-2.73 1.4-2.73 3.038 0 1.64 1.067 3.015 2.777 3.015.784 0 1.638-.308 2.113-.878l2.161 2.635c-.974.951-2.636 1.52-4.369 1.52-3.727 0-6.624-2.374-6.624-6.292 0-3.846 2.92-6.292 6.6-6.292 1.686 0 3.467.641 4.393 1.591l-2.256 2.612zM152.926 171.88l.095-11.896h-.072l-4.368 11.896h-2.849l-4.25-11.896h-.071l.095 11.896h-3.823v-16.81h5.769l3.823 10.78h.095l3.657-10.78h5.864v16.81zM177.602 167.037h-8.571c.118 1.306 1.424 2.232 2.825 2.232 1.234 0 2.089-.522 2.612-1.235l2.706 1.71c-1.116 1.614-2.967 2.517-5.365 2.517-3.562 0-6.506-2.256-6.506-6.245 0-3.87 2.8-6.34 6.387-6.34 3.49 0 5.935 2.399 5.935 6.435 0 .309 0 .64-.023.926m-3.562-2.422c0-1.234-.783-2.255-2.327-2.255-1.495 0-2.588 1.044-2.682 2.255h5.009zM197.436 167.037h-8.571c.118 1.306 1.424 2.232 2.825 2.232 1.234 0 2.089-.522 2.612-1.235l2.706 1.71c-1.116 1.614-2.967 2.517-5.365 2.517-3.562 0-6.506-2.256-6.506-6.245 0-3.87 2.8-6.34 6.387-6.34 3.49 0 5.935 2.399 5.935 6.435 0 .309 0 .64-.023.926m-3.562-2.422c0-1.234-.783-2.255-2.327-2.255-1.495 0-2.588 1.044-2.682 2.255h5.009zM209.964 162.977v4.511c0 1.093.356 1.662 1.472 1.662.38 0 .855-.07 1.14-.19l.047 2.849c-.522.19-1.424.356-2.255.356-3.158 0-4.203-1.685-4.203-4.203v-4.985h-1.9v-2.921h1.877v-3.11h3.822v3.11h2.778v2.921h-2.778zM227.71 163.546c-.617-.594-1.52-1.068-2.469-1.068-.736 0-1.472.261-1.472.95 0 .665.641.854 2.16 1.186 1.805.405 3.776 1.307 3.776 3.61 0 2.991-2.636 4.036-5.058 4.036-1.923 0-3.917-.64-5.152-1.828l2.184-2.303c.69.76 1.758 1.33 2.897 1.33.641 0 1.401-.262 1.401-1.02 0-.738-.736-.975-2.35-1.355-1.639-.38-3.443-1.21-3.443-3.442 0-2.826 2.66-3.966 4.914-3.966 1.758 0 3.586.57 4.75 1.662l-2.138 2.208zM257.77 172.332c-5.176 0-9.046-3.61-9.046-8.88 0-5.39 3.99-8.832 9.117-8.832 2.351 0 4.892.855 6.292 2.469l-2.754 2.755c-.759-1.045-2.113-1.544-3.395-1.544-2.825 0-4.844 2.184-4.844 5.152 0 3.063 1.971 5.152 4.773 5.152 1.59 0 2.85-.711 3.561-1.71l2.825 2.66c-1.472 1.71-3.703 2.778-6.529 2.778M273.61 158.418c-1.258 0-2.23-.973-2.23-2.136 0-1.14.972-2.137 2.23-2.137 1.234 0 2.232.95 2.232 2.137 0 1.21-.998 2.136-2.232 2.136m-1.945 1.638h3.893v11.824h-3.893v-11.824zM288.669 162.977v4.511c0 1.093.355 1.662 1.47 1.662.382 0 .856-.07 1.14-.19l.048 2.849c-.521.19-1.424.356-2.256.356-3.158 0-4.201-1.685-4.201-4.203v-4.985h-1.9v-2.921h1.875v-3.11h3.824v3.11h2.777v2.921h-2.777zM306.36 173.66c-.95 2.47-2.232 3.919-5.2 3.919a9.604 9.604 0 0 1-2.138-.261l.428-3.277c.381.119.88.214 1.258.214 1.211 0 1.615-.57 1.996-1.591l.38-.973-4.939-11.634h4.32l2.635 7.597h.072l2.35-7.597h4.131l-5.293 13.604zM338.962 172.332c-5.178 0-9.047-3.61-9.047-8.88 0-5.39 3.988-8.832 9.117-8.832 2.35 0 4.89.855 6.29 2.469l-2.753 2.755c-.76-1.045-2.113-1.544-3.394-1.544-2.826 0-4.844 2.184-4.844 5.152 0 3.063 1.97 5.152 4.772 5.152 1.59 0 2.849-.711 3.562-1.71l2.824 2.66c-1.47 1.71-3.703 2.778-6.527 2.778M360.532 171.88v-1.639h-.047c-.545 1.045-1.898 1.971-3.56 1.971-3.182 0-4.3-2.469-4.3-4.843v-7.313h3.919v6.411c0 1.33.332 2.517 1.758 2.517 1.353 0 2.089-1.188 2.089-2.542v-6.386h3.893v11.824h-3.752zM373.047 153.931h3.939v17.949h-3.939zM390.26 162.977v4.511c0 1.093.355 1.662 1.473 1.662.38 0 .853-.07 1.138-.19l.05 2.849c-.524.19-1.427.356-2.257.356-3.158 0-4.203-1.685-4.203-4.203v-4.985h-1.898v-2.921h1.875v-3.11h3.822v3.11h2.777v2.921h-2.777zM408.717 171.88v-1.639h-.047c-.547 1.045-1.9 1.971-3.562 1.971-3.182 0-4.297-2.469-4.297-4.843v-7.313h3.918v6.411c0 1.33.332 2.517 1.756 2.517 1.353 0 2.09-1.188 2.09-2.542v-6.386h3.894v11.824h-3.752zM428.883 163.238a3.787 3.787 0 0 0-.996-.118c-2.09 0-2.779 1.709-2.779 2.682v6.079h-3.893v-11.825h3.75v1.71h.05c.593-1.187 1.755-2.042 3.204-2.042.31 0 .641.024.83.095l-.166 3.419zM448.083 167.037h-8.57c.118 1.306 1.423 2.232 2.823 2.232 1.237 0 2.09-.522 2.614-1.235l2.705 1.71c-1.115 1.614-2.967 2.517-5.365 2.517-3.56 0-6.506-2.256-6.506-6.245 0-3.87 2.802-6.34 6.386-6.34 3.491 0 5.936 2.399 5.936 6.435 0 .309 0 .64-.023.926m-3.56-2.422c0-1.234-.784-2.255-2.327-2.255-1.496 0-2.59 1.044-2.684 2.255h5.01z"/><g><path class="st1" d="M156.503 61.327l-11.555 6.67-11.553 6.67V47.983l11.553 6.672zM187.885 106.015l11.555-6.67 11.552-6.669V119.357l-11.552-6.67zM292.155 61.449l11.556-6.671 11.553-6.668V74.79l-11.553-6.671zM396.475 105.91l11.557-6.67 11.553-6.667v26.68l-11.553-6.671zM463.148 52.994l-6.67-11.555-6.67-11.553h26.683l-6.673 11.553zM65.565 106.017l-11.554 6.67-11.554 6.669v-26.68l11.554 6.67z"/><path class="st0" d="M197.65 3.201h53.369v26.685H197.65zM396.437 3.201h80.054v26.685h-80.054zM325.356 114.818h26.686V74.793h3.249c7.368 0 13.342-5.974 13.342-13.343s-5.974-13.342-13.341-13.342h-40.027v26.685h10.09v40.025zM184.308 39.306v26.685h26.684v53.366h.033a26.562 26.562 0 0 0 14.903-4.567c7.09-4.797 11.75-12.91 11.75-22.116V65.991h26.684V39.306h-80.054zM106.71 47.983c-7.367 0-13.34 5.974-13.34 13.342 0 7.369 5.973 13.343 13.34 13.343h26.685V47.983H106.71zM446.27 39.307h-26.685v79.946h.031c14.722-.017 26.653-11.957 26.653-26.683h-.002l.002-53.263zM42.457 119.414V92.731l-40.028-.029v26.684zM42.457 74.668v-.03c7.367 0 13.342-5.973 13.342-13.342 0-7.368-5.975-13.341-13.342-13.341l-40.027.028v26.685h40.027zM42.457 29.919c7.367 0 13.342-5.973 13.342-13.342 0-7.368-5.975-13.342-13.342-13.342H2.43v26.684h40.028z"/></g></svg>